<svg width="22" height="23" viewBox="0 0 22 23" fill="none" xmlns="http://www.w3.org/2000/svg">
<path d="M11.099 0.828125C8.95633 0.828125 6.86182 1.46349 5.08029 2.65387C3.29875 3.84425 1.91022 5.53619 1.09027 7.51572C0.270319 9.49525 0.0557828 11.6735 0.473789 13.7749C0.891796 15.8764 1.92357 17.8067 3.43864 19.3218C4.95371 20.8369 6.88402 21.8686 8.98549 22.2866C11.0869 22.7046 13.2652 22.4901 15.2447 21.6702C17.2242 20.8502 18.9162 19.4617 20.1066 17.6801C21.2969 15.8986 21.9323 13.8041 21.9323 11.6615C21.929 8.78929 20.7866 6.0357 18.7557 4.00476C16.7247 1.97383 13.9711 0.831411 11.099 0.828125ZM11.099 20.3281C9.38486 20.3281 7.70925 19.8198 6.28402 18.8675C4.8588 17.9152 3.74797 16.5617 3.09201 14.978C2.43605 13.3944 2.26442 11.6518 2.59882 9.97068C2.93323 8.28951 3.75865 6.74525 4.9707 5.5332C6.18276 4.32114 7.72701 3.49572 9.40818 3.16132C11.0893 2.82691 12.8319 2.99854 14.4156 3.6545C15.9992 4.31046 17.3527 5.42129 18.305 6.84652C19.2573 8.27174 19.7656 9.94735 19.7656 11.6615C19.763 13.9592 18.8491 16.1621 17.2243 17.7868C15.5996 19.4116 13.3967 20.3255 11.099 20.3281ZM11.099 5.16146C10.9567 5.16142 10.8158 5.18942 10.6843 5.24385C10.5529 5.29828 10.4335 5.37807 10.3328 5.47868C10.2322 5.57928 10.1524 5.69872 10.098 5.83017C10.0436 5.96163 10.0156 6.10252 10.0156 6.24479V11.3895L8.51864 14.182C8.38297 14.4354 8.35352 14.7323 8.43675 15.0073C8.51998 15.2824 8.70908 15.5132 8.96245 15.6489C9.21581 15.7845 9.5127 15.814 9.78778 15.7307C10.0629 15.6475 10.2936 15.4584 10.4293 15.205L12.0543 12.173C12.1382 12.0155 12.1821 11.8399 12.1823 11.6615V6.24479C12.1823 6.10252 12.1543 5.96163 12.0999 5.83017C12.0455 5.69872 11.9657 5.57928 11.8651 5.47868C11.7645 5.37807 11.645 5.29828 11.5136 5.24385C11.3821 5.18942 11.2412 5.16142 11.099 5.16146Z" fill="#C1C1C1"/>
</svg>
