<svg width="27" height="27" viewBox="0 0 27 27" fill="none" xmlns="http://www.w3.org/2000/svg">
<path d="M10.4255 22.5636V19.2423C10.4255 18.3944 11.1178 17.7071 11.9719 17.7071H15.0938C15.504 17.7071 15.8973 17.8689 16.1873 18.1568C16.4773 18.4447 16.6402 18.8351 16.6402 19.2423V22.5636C16.6376 22.9161 16.7769 23.255 17.027 23.5052C17.2772 23.7553 17.6176 23.896 17.9726 23.896H20.1026C21.0973 23.8986 22.0522 23.5081 22.7565 22.8107C23.4609 22.1133 23.8567 21.1664 23.8567 20.1788V10.7169C23.8567 9.9192 23.5005 9.16253 22.8841 8.65074L15.6385 2.90601C14.3781 1.89876 12.5722 1.93128 11.3494 2.98325L4.26913 8.65074C3.62362 9.14744 3.23782 9.90636 3.21875 10.7169V20.1692C3.21875 22.2274 4.89953 23.896 6.97287 23.896H9.05417C9.79163 23.896 10.391 23.3053 10.3963 22.5733L10.4255 22.5636Z" fill="black"/>
</svg>
