<svg width="17" height="20" viewBox="0 0 17 20" fill="none" xmlns="http://www.w3.org/2000/svg">
<path fill-rule="evenodd" clip-rule="evenodd" d="M15.2071 6.79633C15.2071 8.05227 15.539 8.79253 16.2695 9.6456C16.8231 10.2741 17 11.0808 17 11.956C17 12.8302 16.7128 13.6601 16.1373 14.3339C15.384 15.1417 14.3216 15.6574 13.2372 15.747C11.666 15.8809 10.0937 15.9937 8.5005 15.9937C6.90635 15.9937 5.33505 15.9263 3.76376 15.747C2.67846 15.6574 1.61602 15.1417 0.863666 14.3339C0.28822 13.6601 0 12.8302 0 11.956C0 11.0808 0.177901 10.2741 0.730489 9.6456C1.48384 8.79253 1.79392 8.05227 1.79392 6.79633V6.37031C1.79392 4.68834 2.21333 3.58852 3.077 2.51186C4.36107 0.941697 6.41936 0 8.45578 0H8.54523C10.6254 0 12.7503 0.98702 14.0125 2.62467C14.8314 3.67917 15.2071 4.73266 15.2071 6.37031V6.79633ZM5.57371 18.0608C5.57371 17.5572 6.03586 17.3265 6.46322 17.2278C6.96313 17.1221 10.0093 17.1221 10.5092 17.2278C10.9366 17.3265 11.3987 17.5572 11.3987 18.0608C11.3739 18.5402 11.0926 18.9652 10.704 19.2351C10.2001 19.6279 9.60879 19.8767 8.99061 19.9663C8.64872 20.0106 8.31279 20.0116 7.98283 19.9663C7.36366 19.8767 6.77231 19.6279 6.26941 19.2341C5.87982 18.9652 5.59856 18.5402 5.57371 18.0608Z" fill="white"/>
</svg>
