<svg width="96" height="114" viewBox="0 0 96 114" fill="none" xmlns="http://www.w3.org/2000/svg">
<path fill-rule="evenodd" clip-rule="evenodd" d="M70.3264 48.6546C70.3264 54.2216 68.0934 59.5606 64.1187 63.4971C60.1439 67.4336 54.753 69.6451 49.1319 69.6451C43.5108 69.6451 38.1199 67.4336 34.1452 63.4971C30.1705 59.5606 27.9375 54.2216 27.9375 48.6546C27.9375 43.0875 30.1705 37.7485 34.1452 33.812C38.1199 29.8756 43.5108 27.6641 49.1319 27.6641C54.753 27.6641 60.1439 29.8756 64.1187 33.812C68.0934 37.7485 70.3264 43.0875 70.3264 48.6546ZM59.7292 48.6546C59.7292 51.4381 58.6127 54.1076 56.6253 56.0758C54.6379 58.0441 51.9425 59.1498 49.1319 59.1498C46.3214 59.1498 43.6259 58.0441 41.6386 56.0758C39.6512 54.1076 38.5347 51.4381 38.5347 48.6546C38.5347 45.8711 39.6512 43.2016 41.6386 41.2333C43.6259 39.2651 46.3214 38.1593 49.1319 38.1593C51.9425 38.1593 54.6379 39.2651 56.6253 41.2333C58.6127 43.2016 59.7292 45.8711 59.7292 48.6546Z" fill="white"/>
<path fill-rule="evenodd" clip-rule="evenodd" d="M14.8043 81.4332C7.97357 74.9921 3.22478 66.6895 1.15848 57.5755C-0.907812 48.4614 -0.19881 38.9452 3.19583 30.2302C6.59048 21.5153 12.5183 13.9929 20.2297 8.61452C27.941 3.23611 37.0896 0.243174 46.5185 0.014197C55.9474 -0.21478 65.2331 2.33048 73.2014 7.32812C81.1697 12.3258 87.4626 19.5513 91.2845 28.091C95.1063 36.6308 96.2854 46.1011 94.6726 55.3045C93.0599 64.5079 88.7276 73.031 82.2238 79.7959L49.3407 114L14.8043 81.4332ZM74.5515 72.5595L48.9751 99.1649L22.1111 73.8346C16.7986 68.8249 13.1053 62.3674 11.4983 55.2789C9.89125 48.1903 10.4427 40.789 13.0829 34.0109C15.7231 27.2327 20.3334 21.3821 26.3309 17.1989C32.3284 13.0157 39.4438 10.6877 46.7772 10.5094C54.1106 10.3311 61.3327 12.3104 67.5303 16.1971C73.7278 20.0837 78.6225 25.7032 81.5954 32.3449C84.5683 38.9865 85.4858 46.3521 84.232 53.5102C82.9782 60.6684 79.6094 67.2975 74.5515 72.5595Z" fill="white"/>
</svg>
